<svg width="163" height="204" viewBox="0 0 163 204" fill="none" xmlns="http://www.w3.org/2000/svg">
<g clip-path="url(#clip0_2321_36)">
<rect width="163" height="204" fill="#1E1E1E"/>
<path d="M38.3358 25.5369C40.2124 25.5369 41.8981 26.3249 43.0583 27.5765C43.1767 27.6704 43.2915 27.7714 43.4009 27.8808L84.1704 68.6498C85.7061 70.1856 85.7061 72.6759 84.1704 74.2116C82.6346 75.7473 80.1444 75.7473 78.6086 74.2116L39.8652 35.4677V112.491C39.8652 114.663 38.1045 116.423 35.9326 116.423C33.7607 116.423 32 114.663 32 112.491V31.6542C32 28.2757 34.8367 25.5369 38.3358 25.5369Z" fill="white"/>
<path fill-rule="evenodd" clip-rule="evenodd" d="M144.079 5C148.785 5.00001 152.599 8.91263 152.599 13.7391C152.599 15.2416 152.23 16.6554 151.578 17.8902H151.57C151.532 17.9685 151.492 18.0453 151.452 18.1214C151.328 18.3402 151.194 18.5527 151.053 18.7589C150.094 20.0912 148.6 20.9488 146.919 20.9488H139.054C138.812 20.9488 138.617 21.1445 138.617 21.3858V22.6966C138.617 22.7304 138.621 22.7632 138.628 22.7948C138.625 22.7956 138.621 22.7969 138.617 22.7978V25.9738C138.617 26.7789 138.254 27.4989 137.682 27.9798C137.62 28.0679 137.553 28.154 137.482 28.2375L133.81 32.5157C133.81 32.5199 133.81 32.524 133.81 32.5281V112.491C133.81 114.663 132.05 116.423 129.878 116.423C127.706 116.423 125.945 114.663 125.945 112.491V41.6807L87.4104 86.5841C86.1923 88.0033 84.0544 88.1665 82.6351 86.9486C81.2157 85.7305 81.0526 83.5922 82.2706 82.1728L125.761 31.4946L125.762 31.4955L128.038 28.843L128.037 28.8422L132.342 23.8266C132.639 23.4805 132.991 23.2094 133.373 23.0145V20.7304C133.373 19.5346 134.174 18.5261 135.268 18.211C135.637 18.0119 136.059 17.8603 136.518 17.7694C135.905 16.5634 135.558 15.193 135.558 13.7391C135.558 8.91263 139.373 5.00001 144.079 5ZM144.424 9.3721C144.382 9.37092 144.34 9.36954 144.297 9.36954C142.125 9.36954 140.365 10.9346 140.365 12.8652C140.365 12.9425 140.368 13.0191 140.374 13.0952C140.368 13.1839 140.365 13.2737 140.365 13.3644C140.365 13.408 140.365 13.4515 140.367 13.4946C140.365 13.5342 140.365 13.574 140.365 13.6141C140.365 13.6578 140.366 13.7014 140.367 13.7446C140.366 13.7842 140.365 13.8241 140.365 13.8641V16.3608H145.526C147.019 16.3608 148.23 15.3548 148.23 14.1137C148.23 14.0746 148.228 14.0355 148.226 13.9968C148.228 13.9529 148.23 13.9087 148.23 13.8641C148.23 13.8239 148.229 13.7838 148.227 13.7442C148.228 13.7012 148.23 13.6577 148.23 13.6141C148.23 13.5702 148.228 13.5267 148.227 13.4835C148.229 13.4441 148.23 13.4044 148.23 13.3644C148.23 13.3249 148.229 13.2856 148.227 13.2467C148.229 13.203 148.23 13.1591 148.23 13.1148C148.23 13.0705 148.229 13.0266 148.227 12.9829C148.229 12.944 148.23 12.9047 148.23 12.8652C148.23 12.8206 148.228 12.7763 148.226 12.7325C148.152 10.8634 146.532 9.36954 144.543 9.36954C144.503 9.36954 144.464 9.37091 144.424 9.3721Z" fill="white"/>
<path fill-rule="evenodd" clip-rule="evenodd" d="M144.079 5C148.785 5.00001 152.599 8.91263 152.599 13.7391C152.599 15.2415 152.229 16.6553 151.578 17.8902H151.57C151.533 17.9677 151.493 18.0439 151.453 18.1193C151.33 18.3361 151.198 18.5468 151.058 18.7513C150.099 20.0879 148.603 20.9488 146.919 20.9488H139.054C138.812 20.9488 138.617 21.1445 138.617 21.3858V25.9738C138.617 26.7789 138.254 27.4989 137.682 27.9798C137.62 28.0679 137.553 28.154 137.482 28.2375L87.4104 86.5841C86.1923 88.0033 84.0544 88.1665 82.635 86.9486C81.2157 85.7305 81.0526 83.5922 82.2706 82.1728L132.342 23.8266C132.639 23.4805 132.991 23.2094 133.373 23.0146V20.7304C133.373 19.5346 134.174 18.5261 135.268 18.211C135.636 18.0121 136.059 17.8608 136.517 17.7698C135.905 16.5638 135.558 15.193 135.558 13.7391C135.558 8.91262 139.373 5 144.079 5ZM144.424 9.3721C144.382 9.37092 144.34 9.36954 144.297 9.36954C142.125 9.36954 140.365 10.9346 140.365 12.8652C140.365 12.9425 140.368 13.0191 140.374 13.0952C140.368 13.1839 140.365 13.2737 140.365 13.3644C140.365 13.408 140.365 13.4515 140.367 13.4946C140.365 13.5342 140.365 13.574 140.365 13.6141C140.365 13.6578 140.366 13.7014 140.367 13.7446C140.366 13.7842 140.365 13.8241 140.365 13.8641V16.3608H145.526C147.019 16.3608 148.23 15.3548 148.23 14.1137C148.23 14.0746 148.228 14.0355 148.226 13.9968C148.228 13.9529 148.23 13.9087 148.23 13.8641C148.23 13.8239 148.229 13.7838 148.227 13.7442C148.228 13.7012 148.23 13.6577 148.23 13.6141C148.23 13.5702 148.228 13.5267 148.227 13.4835C148.229 13.4441 148.23 13.4044 148.23 13.3644C148.23 13.3249 148.229 13.2856 148.227 13.2467C148.228 13.203 148.23 13.1591 148.23 13.1148C148.23 13.0705 148.228 13.0266 148.227 12.983C148.229 12.944 148.23 12.9047 148.23 12.8652C148.23 12.8206 148.228 12.7763 148.226 12.7325C148.152 10.8634 146.532 9.36955 144.543 9.36954C144.503 9.36954 144.463 9.37091 144.424 9.3721Z" fill="white"/>
<path d="M37.8235 161.432C37.8235 167.923 35.4338 171.989 30.6545 173.63C29.5132 174.022 28.3005 174.219 27.0165 174.219C24.9478 174.219 22.9505 173.719 21.0245 172.721V169.564C22.8435 170.563 24.6982 171.062 26.5885 171.062C28.0865 171.062 29.4062 170.723 30.5475 170.046C33.0442 168.548 34.2925 165.748 34.2925 161.646V142.974L37.8235 141.102V161.432ZM56.4708 164C53.4391 164 51.1029 163.019 49.4623 161.057C48.1069 159.381 47.4293 157.259 47.4293 154.691V131.365L51.0138 129.492V154.584C51.0138 158.65 52.9754 160.683 56.8988 160.683H58.7713V164H56.4708ZM57.7008 164V160.683H60.9643C64.9233 160.683 66.9028 158.65 66.9028 154.584V146.88L70.4873 145.007V154.584C70.4873 158.65 72.449 160.683 76.3723 160.683H78.3518C82.2752 160.683 84.2368 158.65 84.2368 154.584V144.954L87.8213 143.028V154.584C87.8213 158.65 89.8008 160.683 93.7598 160.683H95.6858C99.6448 160.683 101.624 158.65 101.624 154.584V142.974L105.209 141.102V154.37C105.209 158.579 107.242 160.683 111.308 160.683H114.411V164H110.933C107.545 164 105.066 162.805 103.497 160.415C101.928 162.805 99.5022 164 96.2208 164H93.2783C89.9613 164 87.5538 162.823 86.0558 160.469C84.5222 162.823 82.1325 164 78.8868 164H75.9443C72.6273 164 70.202 162.823 68.6683 160.469C67.1703 162.823 64.7628 164 61.4458 164H57.7008ZM121.1 149.662C121.1 146.63 122.01 144.276 123.829 142.6C125.398 141.173 127.467 140.46 130.035 140.46C133.352 140.46 135.902 141.673 137.685 144.098C139.219 146.167 139.986 148.877 139.986 152.23C139.986 156.046 139.005 159.024 137.043 161.164C135.331 163.055 133.102 164 130.356 164C127.003 164 124.507 162.93 122.866 160.79C121.261 162.93 118.853 164 115.643 164H113.343V160.683H115.215C119.139 160.683 121.1 158.65 121.1 154.584V149.662ZM124.685 154.798C124.685 158.721 126.611 160.683 130.463 160.683C132.318 160.683 133.78 159.934 134.85 158.436C135.92 156.938 136.455 154.851 136.455 152.176C136.455 149.537 135.884 147.468 134.743 145.97C133.637 144.472 132.068 143.723 130.035 143.723C126.468 143.723 124.685 145.81 124.685 149.983V154.798Z" fill="white"/>
<path d="M47.7 198V172.8H51.228L60.12 190.404L69.048 172.8H72.612V198H69.588V178.2L61.272 194.472H59.004L50.724 178.272V198H47.7ZM82.3576 198.432C80.8936 198.432 79.6696 198.18 78.6856 197.676C77.7016 197.148 76.9696 196.464 76.4896 195.624C76.0096 194.76 75.7696 193.824 75.7696 192.816C75.7696 191.592 76.0816 190.56 76.7056 189.72C77.3536 188.856 78.2536 188.208 79.4056 187.776C80.5816 187.32 81.9616 187.092 83.5456 187.092H88.3336C88.3336 185.964 88.1536 185.028 87.7936 184.284C87.4576 183.516 86.9536 182.94 86.2816 182.556C85.6336 182.172 84.8176 181.98 83.8336 181.98C82.6816 181.98 81.6856 182.268 80.8456 182.844C80.0056 183.42 79.4896 184.272 79.2976 185.4H76.2016C76.3456 184.104 76.7776 183.024 77.4976 182.16C78.2416 181.272 79.1776 180.6 80.3056 180.144C81.4336 179.664 82.6096 179.424 83.8336 179.424C85.5136 179.424 86.9056 179.736 88.0096 180.36C89.1376 180.96 89.9776 181.812 90.5296 182.916C91.0816 183.996 91.3576 185.28 91.3576 186.768V198H88.6576L88.4776 194.796C88.2376 195.3 87.9256 195.78 87.5416 196.236C87.1816 196.668 86.7496 197.052 86.2456 197.388C85.7416 197.7 85.1656 197.952 84.5176 198.144C83.8936 198.336 83.1736 198.432 82.3576 198.432ZM82.8256 195.876C83.6656 195.876 84.4216 195.708 85.0936 195.372C85.7896 195.012 86.3776 194.532 86.8576 193.932C87.3376 193.308 87.6976 192.624 87.9376 191.88C88.2016 191.136 88.3336 190.356 88.3336 189.54V189.432H83.7976C82.6216 189.432 81.6736 189.576 80.9536 189.864C80.2336 190.128 79.7176 190.512 79.4056 191.016C79.0936 191.496 78.9376 192.048 78.9376 192.672C78.9376 193.32 79.0816 193.884 79.3696 194.364C79.6816 194.844 80.1256 195.216 80.7016 195.48C81.3016 195.744 82.0096 195.876 82.8256 195.876ZM101.645 198.432C100.133 198.432 98.8132 198.18 97.6852 197.676C96.5812 197.172 95.6932 196.476 95.0212 195.588C94.3732 194.676 93.9772 193.608 93.8332 192.384H96.9292C97.0492 193.008 97.3012 193.584 97.6852 194.112C98.0692 194.64 98.5852 195.072 99.2332 195.408C99.9052 195.72 100.721 195.876 101.681 195.876C102.521 195.876 103.217 195.756 103.769 195.516C104.321 195.252 104.729 194.904 104.993 194.472C105.281 194.04 105.425 193.572 105.425 193.068C105.425 192.324 105.245 191.76 104.885 191.376C104.549 190.992 104.045 190.692 103.373 190.476C102.701 190.236 101.885 190.032 100.925 189.864C100.133 189.72 99.3532 189.528 98.5852 189.288C97.8172 189.048 97.1332 188.736 96.5332 188.352C95.9332 187.944 95.4532 187.452 95.0932 186.876C94.7572 186.3 94.5892 185.592 94.5892 184.752C94.5892 183.72 94.8532 182.808 95.3812 182.016C95.9092 181.2 96.6652 180.564 97.6492 180.108C98.6572 179.652 99.8212 179.424 101.141 179.424C103.085 179.424 104.657 179.892 105.857 180.828C107.057 181.764 107.765 183.12 107.981 184.896H104.993C104.873 183.984 104.477 183.276 103.805 182.772C103.157 182.244 102.257 181.98 101.105 181.98C99.9772 181.98 99.1132 182.208 98.5132 182.664C97.9372 183.12 97.6492 183.72 97.6492 184.464C97.6492 184.944 97.8052 185.376 98.1172 185.76C98.4532 186.12 98.9332 186.432 99.5572 186.696C100.205 186.96 100.997 187.176 101.933 187.344C103.133 187.56 104.225 187.848 105.209 188.208C106.193 188.568 106.985 189.108 107.585 189.828C108.209 190.524 108.521 191.52 108.521 192.816C108.521 193.944 108.233 194.928 107.657 195.768C107.105 196.608 106.313 197.268 105.281 197.748C104.249 198.204 103.037 198.432 101.645 198.432ZM117.162 198.432C115.698 198.432 114.474 198.18 113.49 197.676C112.506 197.148 111.774 196.464 111.294 195.624C110.814 194.76 110.574 193.824 110.574 192.816C110.574 191.592 110.886 190.56 111.51 189.72C112.158 188.856 113.058 188.208 114.21 187.776C115.386 187.32 116.766 187.092 118.35 187.092H123.138C123.138 185.964 122.958 185.028 122.598 184.284C122.262 183.516 121.758 182.94 121.086 182.556C120.438 182.172 119.622 181.98 118.638 181.98C117.486 181.98 116.49 182.268 115.65 182.844C114.81 183.42 114.294 184.272 114.102 185.4H111.006C111.15 184.104 111.582 183.024 112.302 182.16C113.046 181.272 113.982 180.6 115.11 180.144C116.238 179.664 117.414 179.424 118.638 179.424C120.318 179.424 121.71 179.736 122.814 180.36C123.942 180.96 124.782 181.812 125.334 182.916C125.886 183.996 126.162 185.28 126.162 186.768V198H123.462L123.282 194.796C123.042 195.3 122.73 195.78 122.346 196.236C121.986 196.668 121.554 197.052 121.05 197.388C120.546 197.7 119.97 197.952 119.322 198.144C118.698 198.336 117.978 198.432 117.162 198.432ZM117.63 195.876C118.47 195.876 119.226 195.708 119.898 195.372C120.594 195.012 121.182 194.532 121.662 193.932C122.142 193.308 122.502 192.624 122.742 191.88C123.006 191.136 123.138 190.356 123.138 189.54V189.432H118.602C117.426 189.432 116.478 189.576 115.758 189.864C115.038 190.128 114.522 190.512 114.21 191.016C113.898 191.496 113.742 192.048 113.742 192.672C113.742 193.32 113.886 193.884 114.174 194.364C114.486 194.844 114.93 195.216 115.506 195.48C116.106 195.744 116.814 195.876 117.63 195.876ZM129.61 198V179.856H132.346L132.562 183.312C132.97 182.496 133.486 181.8 134.11 181.224C134.758 180.648 135.526 180.204 136.414 179.892C137.326 179.58 138.358 179.424 139.51 179.424V182.592H138.394C137.626 182.592 136.894 182.7 136.198 182.916C135.502 183.108 134.878 183.432 134.326 183.888C133.798 184.344 133.378 184.968 133.066 185.76C132.778 186.528 132.634 187.488 132.634 188.64V198H129.61Z" fill="white"/>
</g>
<defs>
<clipPath id="clip0_2321_36">
<rect width="163" height="204" fill="white"/>
</clipPath>
</defs>
</svg>
